<svg width="16" height="16" viewBox="0 0 16 16" fill="none" xmlns="http://www.w3.org/2000/svg">
<rect x="0.5" y="0.5" width="15" height="15" rx="2.5" fill="#1D4ED8"/>
<rect x="0.5" y="0.5" width="15" height="15" rx="2.5" stroke="white"/>
<path fill-rule="evenodd" clip-rule="evenodd" d="M7.99992 2C8.32033 3.49916 8.96595 5.14682 9.90921 6.09035C10.8528 7.03358 12.5008 7.67912 14 7.9995C12.501 8.32053 10.8528 8.96581 9.90951 9.909C8.96641 10.8525 8.32098 12.5005 8.00057 14C7.79561 13.0425 7.45817 12.0242 6.99532 11.1677C6.991 10.7982 7.04164 10.4128 7.16692 10.0339C7.45957 9.14935 8.28562 7.91839 9.12024 6.88233C8.08421 7.71731 6.85336 8.54309 5.96862 8.83595C5.59069 8.96093 5.20633 9.01169 4.83775 9.00775C3.98012 8.54359 2.95967 8.20553 2 8.0005C3.49896 7.67947 5.14723 7.03389 6.09049 6.091C7.03409 5.14747 7.67903 3.49946 7.99992 2Z" fill="white"/>
</svg>
